#!OML:ASF C:\Vicon Data\Big\jianyuan-13\jianyuan\Session 1\Capture.male.ASF
:FULLY-SPECIFIED
:DEGREES
195
root -5.890408 17.402925 -11.572983 6.973748 8.742778 2.976696
lowerback -9.248203 -1.170910 -5.714438 
upperback 2.870398 -0.774841 -0.964484 
thorax 8.329262 -0.643187 2.064317 
lowerneck -6.300257 -2.147961 2.036376 
upperneck -0.725629 -2.983714 -1.855154 
head 0.766477 -1.520859 -0.986567 
rclavicle 0.000000 0.000000 
rhumerus -44.803158 -18.879956 -76.949144 
rradius 27.313164 
rwrist 32.098858 
rhand -17.088604 -16.457973 
rfingers 0.000000 
rthumb 9.149810 -46.239460 
lclavicle 0.000000 0.000000 
lhumerus -21.978739 23.744275 84.258845 
lradius 28.142411 
lwrist -49.062850 
lhand -21.152319 0.937600 
lfingers 0.000000 
lthumb 5.227293 30.853113 
rfemur -30.464125 -2.606988 15.694510 
rtibia 50.299607 
rfoot -17.087014 -8.512781 
rtoes -27.546416 
lfemur -12.882408 -3.664161 -27.217985 
ltibia 23.095696 
lfoot -14.579493 1.252941 
ltoes -26.377072 
196
root -5.878504 17.401269 -11.534083 6.806858 8.807380 2.988257
lowerback -9.040737 -1.185788 -5.704817 
upperback 2.912691 -0.808341 -0.977103 
thorax 8.256768 -0.657781 2.042226 
lowerneck -6.251868 -2.133378 1.995185 
upperneck -0.694574 -2.960376 -1.844954 
head 0.769088 -1.508747 -0.975426 
rclavicle 0.000000 0.000000 
rhumerus -44.946809 -19.107084 -76.736369 
rradius 27.225903 
rwrist 32.355688 
rhand -17.086539 -16.320926 
rfingers 0.000000 
rthumb 9.151814 -46.102384 
lclavicle 0.000000 0.000000 
lhumerus -21.570427 23.419113 84.537122 
lradius 28.266802 
lwrist -48.739426 
lhand -21.199543 0.944457 
lfingers 0.000000 
lthumb 5.181645 30.861081 
rfemur -30.591033 -2.168269 15.542071 
rtibia 49.633442 
rfoot -16.900226 -8.194011 
rtoes -27.531724 
lfemur -12.459952 -3.633180 -27.271440 
ltibia 22.913957 
lfoot -14.591264 1.223153 
ltoes -26.583265 
197
root -5.864198 17.402540 -11.491538 6.696696 8.852730 3.036494
lowerback -8.969307 -1.235894 -5.727659 
upperback 2.976065 -0.874760 -0.982552 
thorax 8.289900 -0.693049 2.038446 
lowerneck -6.305137 -2.131931 2.068520 
upperneck -0.638592 -2.962748 -1.946759 
head 0.793706 -1.511641 -1.021483 
rclavicle 0.000000 0.000000 
rhumerus -44.989609 -19.238567 -76.599046 
rradius 27.144907 
rwrist 32.426818 
rhand -17.082886 -16.144011 
rfingers 0.000000 
rthumb 9.155385 -45.925271 
lclavicle 0.000000 0.000000 
lhumerus -21.145725 23.205789 84.828377 
lradius 28.392656 
lwrist -48.327367 
lhand -21.283530 1.036322 
lfingers 0.000000 
lthumb 5.100573 30.954920 
rfemur -30.761135 -1.781394 15.315027 
rtibia 48.942723 
rfoot -16.612630 -7.654287 
rtoes -26.920974 
lfemur -12.071042 -3.633173 -27.372385 
ltibia 22.745585 
lfoot -14.643731 1.210807 
ltoes -26.441601 
198
root -5.850555 17.398078 -11.452795 6.621170 8.881857 3.011833
lowerback -8.864791 -1.281935 -5.659428 
upperback 2.983565 -0.953760 -0.959490 
thorax 8.242226 -0.727748 2.013371 
lowerneck -6.263533 -2.122330 1.969098 
upperneck -0.607549 -2.941611 -1.969765 
head 0.797735 -1.501117 -1.010995 
rclavicle 0.000000 0.000000 
rhumerus -45.068257 -19.133434 -76.588724 
rradius 27.128143 
rwrist 32.268642 
rhand -17.113199 -16.134030 
rfingers 0.000000 
rthumb 9.126108 -45.916621 
lclavicle 0.000000 0.000000 
lhumerus -20.810509 23.062054 85.079103 
lradius 28.507683 
lwrist -48.060060 
lhand -21.309697 1.121419 
lfingers 0.000000 
lthumb 5.075346 31.040660 
rfemur -30.978287 -1.330564 15.180770 
rtibia 48.241087 
rfoot -16.228763 -7.186287 
rtoes -26.207762 
lfemur -11.766969 -3.600016 -27.386362 
ltibia 22.591992 
lfoot -14.703875 1.180192 
ltoes -26.407206 
